<svg width="26" height="26" viewBox="0 0 26 26" fill="none" xmlns="http://www.w3.org/2000/svg">
<g clip-path="url(#clip0_169_2358)">
<path d="M13 0.787109C5.83267 0.787109 0 6.44303 0 13.3932C0 20.3433 5.83267 25.9992 13 25.9992C20.1673 25.9992 26 20.3433 26 13.3932C26 6.44303 20.1673 0.787109 13 0.787109ZM13 2.88812C18.9963 2.88812 23.8333 7.57862 23.8333 13.3932C23.836 15.908 22.906 18.34 21.2131 20.2452C19.5202 22.1504 17.1774 23.4018 14.612 23.7711V16.4564H17.6973L18.1816 13.4173H14.612V11.7575C14.612 10.4969 15.0399 9.37604 16.2565 9.37604H18.2119V6.72456C17.8685 6.67939 17.1416 6.5817 15.7679 6.5817C12.8993 6.5817 11.2179 8.0503 11.2179 11.3972V13.4173H8.26908V16.4564H11.2179V23.7448C8.68806 23.3411 6.38867 22.0782 4.73058 20.1819C3.07249 18.2856 2.16373 15.8794 2.16667 13.3932C2.16667 7.57862 7.00375 2.88812 13 2.88812Z" fill="white"/>
</g>
<defs>
<clipPath id="clip0_169_2358">
<rect width="26" height="26" fill="white"/>
</clipPath>
</defs>
</svg>
