<svg aria-hidden="true" style="position: absolute; width: 0; height: 0; overflow: hidden;" version="1.1" xmlns="http://www.w3.org/2000/svg" xmlns:xlink="http://www.w3.org/1999/xlink">
<defs>
<symbol id="icon-previous" viewBox="0 0 31 32">
<path fill="#fff" style="fill: var(--color1, #fff)" d="M18.839 8.193l1.806 1.822-5.935 5.986 5.935 5.986-1.806 1.822-7.742-7.808 7.742-7.808z"></path>
</symbol>
<symbol id="icon-next" viewBox="0 0 31 32">
<path fill="#fff" style="fill: var(--color1, #fff)" d="M12.129 23.807l-1.806-1.822 5.935-5.986-5.935-5.986 1.806-1.822 7.742 7.808-7.742 7.808z"></path>
</symbol>
<symbol id="icon-mail" viewBox="0 0 38 32">
<path fill="none" stroke="#fff" style="stroke: var(--color1, #fff)" stroke-linejoin="round" stroke-linecap="round" stroke-miterlimit="4" stroke-width="3.2" d="M33.254 1.231h-28.11c-2.218 0-4.016 1.889-4.016 4.22v21.099c0 2.331 1.798 4.22 4.016 4.22h28.11c2.218 0 4.016-1.889 4.016-4.22v-21.099c0-2.33-1.798-4.22-4.016-4.22z"></path>
<path fill="none" stroke="#fff" style="stroke: var(--color1, #fff)" stroke-linejoin="round" stroke-linecap="round" stroke-miterlimit="4" stroke-width="3.2" d="M1.128 5.453l18.071 12.659 18.071-12.659"></path>
</symbol>
<symbol id="icon-instagram" viewBox="0 0 32 32">
<path fill="#fff" style="fill: var(--color1, #fff)" d="M9.28 0h13.44c5.12 0 9.28 4.16 9.28 9.28v13.44c0 2.461-0.978 4.822-2.718 6.562s-4.101 2.718-6.562 2.718h-13.44c-5.12 0-9.28-4.16-9.28-9.28v-13.44c0-2.461 0.978-4.822 2.718-6.562s4.101-2.718 6.562-2.718zM8.96 3.2c-1.528 0-2.993 0.607-4.073 1.687s-1.687 2.545-1.687 4.073v14.080c0 3.184 2.576 5.76 5.76 5.76h14.080c1.528 0 2.993-0.607 4.073-1.687s1.687-2.545 1.687-4.073v-14.080c0-3.184-2.576-5.76-5.76-5.76h-14.080zM24.4 5.6c0.53 0 1.039 0.211 1.414 0.586s0.586 0.884 0.586 1.414c0 0.53-0.211 1.039-0.586 1.414s-0.884 0.586-1.414 0.586c-0.53 0-1.039-0.211-1.414-0.586s-0.586-0.884-0.586-1.414c0-0.53 0.211-1.039 0.586-1.414s0.884-0.586 1.414-0.586zM16 8c2.122 0 4.157 0.843 5.657 2.343s2.343 3.535 2.343 5.657-0.843 4.157-2.343 5.657c-1.5 1.5-3.535 2.343-5.657 2.343s-4.157-0.843-5.657-2.343c-1.5-1.5-2.343-3.535-2.343-5.657s0.843-4.157 2.343-5.657c1.5-1.5 3.535-2.343 5.657-2.343zM16 11.2c-1.273 0-2.494 0.506-3.394 1.406s-1.406 2.121-1.406 3.394 0.506 2.494 1.406 3.394c0.9 0.9 2.121 1.406 3.394 1.406s2.494-0.506 3.394-1.406c0.9-0.9 1.406-2.121 1.406-3.394s-0.506-2.494-1.406-3.394c-0.9-0.9-2.121-1.406-3.394-1.406z"></path>
</symbol>
<symbol id="icon-facebook" viewBox="0 0 32 32">
<path fill="#fff" style="fill: var(--color1, #fff)" d="M16 0.969c-8.821 0-16 6.961-16 15.515s7.179 15.515 16 15.515c8.821 0 16-6.961 16-15.515s-7.179-15.515-16-15.515zM16 3.555c7.38 0 13.333 5.773 13.333 12.929 0.003 3.095-1.141 6.088-3.225 8.433s-4.967 3.885-8.124 4.34v-9.003h3.797l0.596-3.74h-4.393v-2.043c0-1.552 0.527-2.931 2.024-2.931h2.407v-3.263c-0.423-0.056-1.317-0.176-3.008-0.176-3.531 0-5.6 1.808-5.6 5.927v2.486h-3.629v3.74h3.629v8.97c-3.114-0.497-5.944-2.051-7.984-4.385s-3.159-5.295-3.156-8.355c0-7.156 5.953-12.929 13.333-12.929z"></path>
</symbol>
<symbol id="icon-drop-down" viewBox="0 0 32 32">
<path  d="M16 20l-6.667-6.667h13.333l-6.667 6.667z"></path>
</symbol>
<symbol id="icon-close" viewBox="0 0 31 32">
<path fill="#fff" style="fill: var(--color1, #fff)" d="M8.325 25.191l-1.821-1.837 7.285-7.346-7.285-7.346 1.821-1.837 7.285 7.346 7.285-7.346 1.821 1.837-7.285 7.346 7.285 7.346-1.821 1.837-7.285-7.346-7.285 7.346z"></path>
</symbol>
</defs>
</svg>
